Coordinates
version=1
nRows=11
nColumns=40
inDegrees=yes

Units are S.I. units (second, meters, Newtons, ...)
If the header above contains a line with 'inDegrees', this indicates whether rotational values are in degrees (yes) or radians (no).

endheader
time	pelvis_tilt	pelvis_list	pelvis_rotation	pelvis_tx	pelvis_ty	pelvis_tz	hip_flexion_r	hip_adduction_r	hip_rotation_r	knee_angle_r	knee_angle_r_beta	ankle_angle_r	subtalar_angle_r	mtp_angle_r	hip_flexion_l	hip_adduction_l	hip_rotation_l	knee_angle_l	knee_angle_l_beta	ankle_angle_l	subtalar_angle_l	mtp_angle_l	lumbar_extension	lumbar_bending	lumbar_rotation	arm_flex_r	arm_add_r	arm_rot_r	elbow_flex_r	pro_sup_r	wrist_flex_r	wrist_dev_r	arm_flex_l	arm_add_l	arm_rot_l	elbow_flex_l	pro_sup_l	wrist_flex_l	wrist_dev_l
      2.60000000	     -7.47931657	     -4.50604480	     -3.39286175	     -0.24991701	      1.05015119	     -1.06023312	     11.58485965	     -8.27379026	    -11.20044474	     92.16183073	      1.60852739	    -22.48713727	      0.00000000	      0.00000000	     12.88057471	     -0.72206959	     -9.08866669	     14.88687228	      0.25982494	     -4.26056666	      0.00000000	      0.00000000	     -2.84593339	     -0.34426196	      5.78763527	     73.24628633	    -26.73595439	     34.42680109	     47.77281310	     83.51897976	      0.00000000	      0.00000000	     81.61524702	    -21.43577409	     46.29959031	     42.50067439	     81.52168793	      0.00000000	      0.00000000
      2.60500000	     -7.53589992	     -4.49974477	     -3.39636565	     -0.25011512	      1.05002518	     -1.06012959	     11.58233917	     -8.24625403	    -11.15831456	     92.05495508	      1.60666206	    -22.51953224	      0.00000000	      0.00000000	     12.99220990	     -0.73764592	     -9.11211491	     14.96432961	      0.26117682	     -4.22705743	      0.00000000	      0.00000000	     -2.84099957	     -0.35340762	      5.75800796	     73.31522540	    -26.64317597	     34.46885366	     47.68592514	     83.45568911	      0.00000000	      0.00000000	     81.60384556	    -21.49282528	     46.17684923	     42.56462388	     81.88176190	      0.00000000	      0.00000000
      2.61000000	     -7.59336036	     -4.50326068	     -3.37295904	     -0.25033884	      1.04988408	     -1.06008276	     11.57962877	     -8.22077339	    -11.15687806	     91.93952279	      1.60464739	    -22.51645900	      0.00000000	      0.00000000	     13.10264878	     -0.75563169	     -9.11310988	     15.03314290	      0.26237784	     -4.20608389	      0.00000000	      0.00000000	     -2.84463774	     -0.36474779	      5.74850224	     73.36293813	    -26.63735158	     34.49006593	     47.64953795	     83.35491260	      0.00000000	      0.00000000	     81.66734607	    -21.46536225	     46.20792132	     42.52573878	     82.02221292	      0.00000000	      0.00000000
      2.61500000	     -7.62335097	     -4.49363240	     -3.35473173	     -0.25053679	      1.04977942	     -1.06001285	     11.56705277	     -8.20649958	    -11.14571737	     91.85988559	      1.60325745	    -22.54831272	      0.00000000	      0.00000000	     13.19058796	     -0.76117776	     -9.12250303	     15.11254358	      0.26376364	     -4.17944507	      0.00000000	      0.00000000	     -2.87559715	     -0.39550339	      5.72238406	     73.41436600	    -26.61517604	     34.51574109	     47.62350588	     83.29929697	      0.00000000	      0.00000000	     81.73415402	    -21.47168346	     46.25316205	     42.50461275	     82.04852137	      0.00000000	      0.00000000
      2.62000000	     -7.68615541	     -4.46116595	     -3.35800468	     -0.25072434	      1.04958028	     -1.05994262	     11.59064096	     -8.22106345	    -11.13177182	     91.80358650	      1.60227485	    -22.46265861	      0.00000000	      0.00000000	     13.30950942	     -0.74605261	     -9.12136244	     15.18875884	      0.26509385	     -4.15617565	      0.00000000	      0.00000000	     -2.86635259	     -0.44482623	      5.72215856	     73.44757098	    -26.59747693	     34.48630358	     47.63960160	     83.38154835	      0.00000000	      0.00000000	     81.79631947	    -21.46995628	     46.34074841	     42.47863138	     81.92389286	      0.00000000	      0.00000000
      2.62500000	     -7.73392292	     -4.43510165	     -3.35871781	     -0.25093586	      1.04944594	     -1.05989042	     11.57354402	     -8.24155473	    -11.10821433	     91.71004031	      1.60064216	    -22.43312696	      0.00000000	      0.00000000	     13.41641954	     -0.73792725	     -9.16407355	     15.27588950	      0.26661457	     -4.12514244	      0.00000000	      0.00000000	     -2.87605958	     -0.48304908	      5.70005513	     73.52014891	    -26.55002891	     34.54989069	     47.56341620	     83.36497690	      0.00000000	      0.00000000	     81.83388922	    -21.48911015	     46.33908629	     42.48902707	     81.97433032	      0.00000000	      0.00000000
      2.63000000	     -7.66272363	     -4.32227327	     -3.41070381	     -0.25100027	      1.04956710	     -1.05976428	     11.44388819	     -8.35468422	    -11.01993272	     91.60183583	      1.59875364	    -22.44611116	      0.00000000	      0.00000000	     13.33393085	     -0.63284272	     -9.25933210	     15.24322029	      0.26604438	     -4.18853765	      0.00000000	      0.00000000	     -3.00554002	     -0.63452480	      5.74897622	     73.59767720	    -26.53795860	     34.70352641	     47.53575953	     82.95128959	      0.00000000	      0.00000000	     81.93665663	    -21.51907785	     46.53160713	     42.49920745	     81.68050913	      0.00000000	      0.00000000
      2.63500000	     -7.78294520	     -4.36106126	     -3.36071925	     -0.25144180	      1.04932819	     -1.05973877	     11.54300903	     -8.29498125	    -11.04629673	     91.45423886	      1.59617758	    -22.88594102	      0.00000000	      0.00000000	     13.55498348	     -0.69141173	     -9.24219215	     15.36666434	      0.26819889	     -4.14243718	      0.00000000	      0.00000000	     -2.96539903	     -0.60577661	      5.71600927	     73.54622524	    -26.47997985	     34.43972578	     47.58416917	     82.36461346	      0.00000000	      0.00000000	     81.91785081	    -21.43969566	     46.28903517	     42.49686225	     81.17477721	      0.00000000	      0.00000000
      2.64000000	     -7.85165229	     -4.36840206	     -3.34180544	     -0.25168129	      1.04907754	     -1.05960467	     11.53815004	     -8.24368533	    -11.05444391	     91.43210923	      1.59579135	    -22.24398373	      0.00000000	      0.00000000	     13.75892435	     -0.74013401	     -9.23696178	     15.63160814	      0.27282303	     -4.02152439	      0.00000000	      0.00000000	     -2.95626258	     -0.63630156	      5.72577713	     73.59925040	    -26.55005109	     34.47752766	     47.58097812	     82.97975396	      0.00000000	      0.00000000	     82.20925228	    -21.43629872	     47.00663342	     42.29575563	     81.72786170	      0.00000000	      0.00000000
      2.64500000	     -7.93473863	     -4.31561105	     -3.36700896	     -0.25185835	      1.04884911	     -1.05953378	     11.60040910	     -8.29298803	    -11.02023706	     91.36024821	      1.59453714	    -22.37798376	      0.00000000	      0.00000000	     13.89327396	     -0.70854363	     -9.30352617	     15.68861361	      0.27381796	     -4.05131859	      0.00000000	      0.00000000	     -2.93031662	     -0.69481370	      5.73915117	     73.66704166	    -26.52489227	     34.48975709	     47.55196324	     83.35770835	      0.00000000	      0.00000000	     82.12462634	    -21.39815734	     46.59056431	     42.34768750	     81.84606184	      0.00000000	      0.00000000
      2.65000000	     -8.00417241	     -4.31922718	     -3.33723476	     -0.25216115	      1.04864206	     -1.05944317	     11.62251255	     -8.25124959	    -11.00420492	     91.29107284	      1.59332980	    -22.25955432	      0.00000000	      0.00000000	     14.06583503	     -0.73712076	     -9.28793428	     15.85543291	      0.27672951	     -3.97946916	      0.00000000	      0.00000000	     -2.92096317	     -0.70727794	      5.71274490	     73.73090997	    -26.47671801	     34.51720613	     47.47080475	     83.15992990	      0.00000000	      0.00000000	     82.26113885	    -21.42033560	     46.89358596	     42.28161851	     81.83277005	      0.00000000	      0.00000000
